# Blender v2.79 (sub 0) OBJ File: 'Projectile1.blend'
# www.blender.org
mtllib Projectile1.mtl
o Engine_Cylinder.001
v -4.067586 0.030396 -0.733716
v -2.454480 0.030396 -1.037610
v -4.067586 -0.572449 -0.385663
v -2.454480 -0.835630 -0.537610
v -4.067586 -0.572449 0.310442
v -2.454480 -0.835630 0.462390
v -4.067586 0.030396 0.658495
v -2.454480 0.030396 0.962390
v -4.067586 0.633241 0.310442
v -2.454480 0.896421 0.462390
v -4.067586 0.633241 -0.385663
v -2.454480 0.896421 -0.537610
v -4.049925 0.030396 -0.873146
v -4.049925 -0.693199 -0.455378
v -4.049925 -0.693199 0.380157
v -4.049925 0.030396 0.797925
v -4.049925 0.753991 0.380157
v -4.049925 0.753991 -0.455378
v -2.521801 0.030396 -0.733716
v -2.521801 -0.572449 -0.385663
v -2.521801 -0.572449 0.310442
v -2.521801 0.030396 0.658495
v -2.521801 0.633241 0.310442
v -2.521801 0.633241 -0.385663
vn -0.0889 -0.4980 -0.8626
vn -0.0889 -0.9960 0.0000
vn -0.0889 -0.4980 0.8626
vn -0.0889 0.4980 0.8626
vn 1.0000 0.0000 0.0000
vn -0.0889 0.9960 0.0000
vn -0.0889 0.4980 -0.8626
vn -0.0000 1.0000 0.0000
vn -0.9895 0.0724 -0.1253
vn -0.9895 0.1447 0.0000
vn -0.9895 0.0724 0.1253
vn -0.9895 -0.0724 0.1253
vn -0.9895 -0.1447 0.0000
vn -0.9895 -0.0724 -0.1253
vn -1.0000 0.0000 0.0000
vn 0.0000 -1.0000 0.0000
vn -0.0000 0.5000 0.8660
vn 0.0000 0.5000 -0.8660
vn 0.0000 -0.5000 0.8660
vn 0.0000 -0.5000 -0.8660
usemtl EngineMaterial
s off
f 13//1 2//1 4//1 14//1
f 14//2 4//2 6//2 15//2
f 15//3 6//3 8//3 16//3
f 16//4 8//4 10//4 17//4
f 4//5 2//5 12//5 10//5 8//5 6//5
f 17//6 10//6 12//6 18//6
f 18//7 12//7 2//7 13//7
f 3//8 5//8 21//8 20//8
f 11//9 18//9 13//9 1//9
f 9//10 17//10 18//10 11//10
f 7//11 16//11 17//11 9//11
f 5//12 15//12 16//12 7//12
f 3//13 14//13 15//13 5//13
f 1//14 13//14 14//14 3//14
f 19//15 20//15 21//15 22//15 23//15 24//15
f 9//16 11//16 24//16 23//16
f 1//17 3//17 20//17 19//17
f 5//18 7//18 22//18 21//18
f 11//19 1//19 19//19 24//19
f 7//20 9//20 23//20 22//20
o Nose_Cone
v 2.631568 0.030396 -1.037610
v 2.631568 -0.835630 -0.537610
v 2.631568 -0.835630 0.462390
v 2.631568 0.030396 0.962390
v 4.631568 0.030396 -0.037610
v 2.631567 0.896421 0.462390
v 2.631567 0.896421 -0.537610
vn 0.3974 -0.4588 -0.7947
vn 0.3974 -0.9177 0.0000
vn 0.3974 -0.4588 0.7947
vn 0.3974 0.4588 0.7947
vn 0.3974 0.9177 0.0000
vn 0.3974 0.4588 -0.7947
vn -1.0000 0.0000 0.0000
usemtl NoseMaterial
s off
f 25//21 29//21 26//21
f 26//22 29//22 27//22
f 27//23 29//23 28//23
f 28//24 29//24 30//24
f 30//25 29//25 31//25
f 31//26 29//26 25//26
f 25//27 26//27 27//27 28//27 30//27 31//27
o Body_Cylinder
v -2.481236 0.030396 -1.037610
v 2.636868 0.030396 -1.037610
v -2.481236 -0.835630 -0.537610
v 2.636868 -0.835630 -0.537610
v -2.481236 -0.835630 0.462390
v 2.636868 -0.835629 0.462390
v -2.481236 0.030396 0.962390
v 2.636868 0.030396 0.962390
v -2.481236 0.896421 0.462390
v 2.636868 0.896421 0.462390
v -2.481236 0.896421 -0.537610
v 2.636868 0.896421 -0.537610
vn 0.0000 -0.5000 -0.8660
vn 0.0000 -1.0000 0.0000
vn 0.0000 -0.5000 0.8660
vn -0.0000 0.5000 0.8660
vn 1.0000 -0.0000 0.0000
vn -0.0000 1.0000 0.0000
vn -0.0000 0.5000 -0.8660
vn -1.0000 0.0000 0.0000
usemtl BodyMaterial
s off
f 32//28 33//28 35//28 34//28
f 34//29 35//29 37//29 36//29
f 36//30 37//30 39//30 38//30
f 38//31 39//31 41//31 40//31
f 35//32 33//32 43//32 41//32 39//32 37//32
f 40//33 41//33 43//33 42//33
f 42//34 43//34 33//34 32//34
f 32//35 34//35 36//35 38//35 40//35 42//35
