# Blender v2.79 (sub 0) OBJ File: 'Projectile1.blend'
# www.blender.org
mtllib Projectile1.mtl
o Body_Cylinder
v 0.000014 -4.362051 -1.001741
v 0.000014 0.756054 -1.001741
v 0.866039 -4.362051 -0.501741
v 0.866039 0.756054 -0.501741
v 0.866039 -4.362051 0.498259
v 0.866039 0.756054 0.498259
v 0.000013 -4.362051 0.998259
v 0.000013 0.756054 0.998259
v -0.866012 -4.362051 0.498259
v -0.866012 0.756054 0.498259
v -0.866012 -4.362051 -0.501741
v -0.866012 0.756054 -0.501741
vn 0.5000 0.0000 -0.8660
vn 1.0000 0.0000 0.0000
vn 0.5000 0.0000 0.8660
vn -0.5000 0.0000 0.8660
vn 0.0000 1.0000 -0.0000
vn -1.0000 0.0000 0.0000
vn -0.5000 0.0000 -0.8660
vn 0.0000 -1.0000 0.0000
usemtl BodyMaterial
s off
f 1//1 2//1 4//1 3//1
f 3//2 4//2 6//2 5//2
f 5//3 6//3 8//3 7//3
f 7//4 8//4 10//4 9//4
f 4//5 2//5 12//5 10//5 8//5 6//5
f 9//6 10//6 12//6 11//6
f 11//7 12//7 2//7 1//7
f 1//8 3//8 5//8 7//8 9//8 11//8
o Engine_Cylinder.001
v 0.000013 -5.948401 -0.697846
v 0.000013 -4.335295 -1.001741
v 0.602858 -5.948401 -0.349794
v 0.866039 -4.335295 -0.501741
v 0.602858 -5.948401 0.346312
v 0.866039 -4.335295 0.498259
v 0.000013 -5.948401 0.694364
v 0.000013 -4.335295 0.998259
v -0.602832 -5.948401 0.346311
v -0.866012 -4.335295 0.498259
v -0.602832 -5.948401 -0.349794
v -0.866012 -4.335295 -0.501741
v 0.000013 -5.930739 -0.837276
v 0.723608 -5.930739 -0.419509
v 0.723608 -5.930739 0.416027
v 0.000013 -5.930739 0.833794
v -0.723582 -5.930739 0.416027
v -0.723582 -5.930739 -0.419509
v 0.000013 -4.402617 -0.697846
v 0.602858 -4.402617 -0.349794
v 0.602858 -4.402617 0.346312
v 0.000013 -4.402617 0.694364
v -0.602831 -4.402617 0.346311
v -0.602831 -4.402617 -0.349794
vn 0.4980 -0.0889 -0.8626
vn 0.9960 -0.0889 0.0000
vn 0.4980 -0.0889 0.8626
vn -0.4980 -0.0889 0.8626
vn 0.0000 1.0000 -0.0000
vn -0.9960 -0.0889 0.0000
vn -0.4980 -0.0889 -0.8626
vn -1.0000 0.0000 0.0000
vn -0.0724 -0.9895 -0.1253
vn -0.1447 -0.9895 0.0000
vn -0.0724 -0.9895 0.1253
vn 0.0724 -0.9895 0.1253
vn 0.1447 -0.9895 0.0000
vn 0.0724 -0.9895 -0.1253
vn 0.0000 -1.0000 0.0000
vn 1.0000 -0.0000 0.0000
vn -0.5000 0.0000 0.8660
vn -0.5000 0.0000 -0.8660
vn 0.5000 -0.0000 0.8660
vn 0.5000 -0.0000 -0.8660
usemtl EngineMaterial
s off
f 25//9 14//9 16//9 26//9
f 26//10 16//10 18//10 27//10
f 27//11 18//11 20//11 28//11
f 28//12 20//12 22//12 29//12
f 16//13 14//13 24//13 22//13 20//13 18//13
f 29//14 22//14 24//14 30//14
f 30//15 24//15 14//15 25//15
f 15//16 17//16 33//16 32//16
f 23//17 30//17 25//17 13//17
f 21//18 29//18 30//18 23//18
f 19//19 28//19 29//19 21//19
f 17//20 27//20 28//20 19//20
f 15//21 26//21 27//21 17//21
f 13//22 25//22 26//22 15//22
f 31//23 32//23 33//23 34//23 35//23 36//23
f 21//24 23//24 36//24 35//24
f 13//25 15//25 32//25 31//25
f 17//26 19//26 34//26 33//26
f 23//27 13//27 31//27 36//27
f 19//28 21//28 35//28 34//28
o Nose_Cone
v 0.000014 0.750753 -1.001741
v 0.866039 0.750753 -0.501741
v 0.866039 0.750753 0.498259
v 0.000014 0.750753 0.998259
v 0.000014 2.750753 -0.001741
v -0.866012 0.750753 0.498259
v -0.866012 0.750753 -0.501741
vn 0.4588 0.3974 -0.7947
vn 0.9177 0.3974 0.0000
vn 0.4588 0.3974 0.7947
vn -0.4588 0.3974 0.7947
vn -0.9177 0.3974 0.0000
vn -0.4588 0.3974 -0.7947
vn 0.0000 -1.0000 -0.0000
usemtl NoseMaterial
s off
f 37//29 41//29 38//29
f 38//30 41//30 39//30
f 39//31 41//31 40//31
f 40//32 41//32 42//32
f 42//33 41//33 43//33
f 43//34 41//34 37//34
f 37//35 38//35 39//35 40//35 42//35 43//35
